<svg width="147" height="56" fill="none" xmlns="http://www.w3.org/2000/svg"><path d="M146.768 5.06317c0 8.28773-39.439 17.43553-42.426 17.43553-1.674 0-3.574-.3909-3.574-1.9546 0-.5225.595-1.2776 1.64-2.1879l-2.7697-4.9825c-.3748-.6747-.0776-1.5293.6317-1.8171l.476-.193c.862-.3497 1.833-.2976 2.654.1426l5.026 2.6954c1.956-1.1758 4.176-2.4069 6.516-3.6189l-9.794-6.43707c-.775-.50931-.767-1.66115.015-2.15887l.801-.50993c1.334-.848653 2.955-1.099312 4.478-.69248l16.293 4.35374c5.081-2.0427 9.674-3.4369 12.393-3.4369.726 0 1.453.01949 2.155.0703l-4.921 2.25022-.118 1.67664 7.596-3.53702c1.82.43987 2.928 1.26081 2.928 2.90184zM126.946 19.3695l6.078 6.9941c.37.4262.974.5545 1.482.3152l.814-.3832c1.484-.6989 2.358-2.2837 2.168-3.9305l-.761-6.5903c-.047-.4077-.455-.6658-.837-.5295l-8.679 3.097c-.423.1509-.561.6866-.265 1.0272zM26.6226 7.46351c-.8026-.12195-1.6453-.41666-2.5281-.88413V5.42086h7.5841v1.15852c-.3411.22357-.7022.40649-1.0834.54877-.3812.14227-.7524.25406-1.1136.33536L24.1547 26.762l-3.1299.3658L16.36 12.372l-4.5445 14.39-3.16003.3658L2.78682 7.46351c-.42133-.0813-.81258-.19309-1.17372-.33536-.36115-.1626-.702236-.34552-1.023256-.54877V5.42086H10.3408v1.15852c-.34106.18292-.7323.35568-1.1737.51828-.42134.14228-.86274.26423-1.32421.36585L10.6418 18.2255l.632 3.9634h.0602l1.0533-4.1158L16.39 5.42086h1.7757l4.2736 12.49984 1.0232 3.9633h.0602l.6922-4.0243 2.4077-10.39619zm3.6733 11.67669c0-1.2399.1805-2.3476.5417-3.3232.3812-.9959.9129-1.8394 1.5951-2.5304.7022-.6911 1.5449-1.2195 2.528-1.5854.9831-.3658 2.0967-.5487 3.3406-.5487 1.4045 0 2.6083.2032 3.6115.6097 1.0232.3862 1.8559.935 2.4979 1.6463.6621.6911 1.1437 1.5346 1.4446 2.5305.301.9756.4515 2.0426.4515 3.2012 0 1.2398-.1806 2.3576-.5418 3.3536-.3611.9756-.8928 1.8089-1.595 2.4999-.6822.6911-1.5249 1.2195-2.5281 1.5854-.9831.3658-2.0966.5487-3.3406.5487-1.3643 0-2.5481-.193-3.5513-.5792-1.0032-.4065-1.8358-.9553-2.4979-1.6463-.6621-.7114-1.1537-1.5549-1.4747-2.5305-.321-.9959-.4815-2.0731-.4815-3.2316zm4.6648 0c0 .9146.0502 1.7581.1505 2.5304.1204.752.321 1.3923.6019 1.9207.2809.5285.6621.9451 1.1436 1.25.4816.2845 1.1035.4268 1.866.4268.4414 0 .8426-.1016 1.2038-.3049.3611-.2235.6721-.5691.9329-1.0365.2609-.4878.4515-1.1179.5719-1.8902.1404-.7927.2106-1.7581.2106-2.8963 0-.935-.0602-1.7785-.1805-2.5305-.1004-.752-.291-1.3922-.5719-1.9207-.2608-.5284-.6219-.9349-1.0834-1.2195-.4615-.3049-1.0433-.4573-1.7456-.4573-.5216 0-.973.1118-1.3543.3354-.3812.2032-.7022.5487-.963 1.0365-.2608.4675-.4615 1.0976-.6019 1.8902-.1204.7724-.1806 1.7277-.1806 2.8659zm20.9992-4.1158c-.2407.1219-.5216.3252-.8427.6097-.321.2846-.6119.752-.8727 1.4024v7.8048c.4012.0406.8025.1219 1.2038.2439.4013.1016.8025.2642 1.2038.4878v1.189h-8.7277v-1.189c.3611-.2033.7022-.3557 1.0232-.4573.3211-.1017.6421-.1931.9631-.2744V13.6829l-1.9863-.2439V12.25c.321-.1423.7123-.2744 1.1737-.3963.4816-.122.9731-.2236 1.4747-.3049.5016-.1016.9831-.1829 1.4446-.2439.4815-.061.8828-.1118 1.2038-.1524h1.0233v4.0548h.1204c.1605-.4472.3912-.9146.6922-1.4024.321-.4878.6922-.935 1.1135-1.3415.4213-.4065.8828-.7317 1.3844-.9756s1.0232-.3556 1.565-.3353c.2207.2845.4113.691.5718 1.2195.1605.5081.2909.9959.3912 1.4634v1.189h-4.1231zM69.4327 26.762h-8.3064v-1.189c.6621-.3252 1.3242-.5691 1.9863-.7317V6.36597l-2.2873-.2439V4.93306c.2608-.12195.622-.2439 1.0834-.36585.4615-.12195.9531-.22357 1.4747-.30487.5418-.10162 1.0734-.18292 1.5951-.2439.5417-.0813 1.0233-.14227 1.4446-.18292h1.0232V24.8413c.6621.1626 1.3243.4065 1.9864.7317v1.189zm11.9489-3.0183c-.1004.4472-.2809.874-.5418 1.2805-.2608.4065-.5718.7724-.9329 1.0976-.3612.3048-.7725.5487-1.2339.7317-.4615.1829-.9531.2743-1.4747.2743-1.9863 0-3.5012-.63-4.5445-1.8902-1.0232-1.2804-1.5348-3.2316-1.5348-5.8535 0-1.3415.1805-2.5102.5417-3.5061.3611-1.0162.8627-1.8699 1.5048-2.5609.6621-.6911 1.4546-1.2094 2.3775-1.5549.9229-.3455 1.9462-.5183 3.0698-.5183.3611 0 .6621.0102.9028.0305.2609.0204.4916.0508.6922.0915.2207.0203.4214.0711.6019.1524.2007.061.4214.1321.6621.2134V6.36597l-2.2872-.2439V4.93306c.2809-.12195.6621-.23374 1.1436-.33536.5016-.10162 1.0233-.19309 1.565-.27439.5417-.10162 1.0734-.19308 1.5951-.27438.5216-.0813.953-.15244 1.2941-.21341h1.0232V24.5974l1.9863.2439v1.067c-.2809.1423-.642.2744-1.0834.3964-.4414.1219-.9029.2337-1.3844.3353-.4815.1017-.953.183-1.4145.2439-.4414.0813-.8126.1423-1.1135.183h-1.0233l-.2709-3.3232h-.1203zm-2.7387.9452c.7022 0 1.2941-.2236 1.7756-.6708.4815-.4471.8326-1.2093 1.0533-2.2865v-8.2011c-.2608-.1626-.5918-.2947-.9931-.3963-.3812-.1017-.8627-.1525-1.4446-.1525-1.1637 0-1.9963.5386-2.4979 1.6158-.5016 1.0569-.7524 2.6016-.7524 4.6341 0 1.6463.2207 2.9675.6621 3.9634.4414.9959 1.1737 1.4939 2.197 1.4939zM1.52281 47.4498c0-1.2398.18057-2.3475.54172-3.3231.38121-.9959.9129-1.8394 1.59507-2.5304.70223-.6911 1.54491-1.2195 2.52803-1.5854.98312-.3658 2.09666-.5488 3.34062-.5488 1.40445 0 2.60825.2033 3.61145.6098 1.0233.3862 1.8559.9349 2.498 1.6463.6621.6911 1.1436 1.5345 1.4445 2.5304.301.9756.4515 2.0427.4515 3.2012 0 1.2398-.1806 2.3577-.5417 3.3536-.3612.9756-.8929 1.8089-1.5951 2.5-.6822.691-1.5249 1.2195-2.528 1.5853-.9832.3659-2.0967.5488-3.34065.5488-1.36434 0-2.5481-.1931-3.55129-.5793-1.00319-.4065-1.83583-.9552-2.49794-1.6463-.6621-.7113-1.15366-1.5548-1.47468-2.5304-.32102-.9959-.48153-2.0732-.48153-3.2317zm4.66482 0c0 .9146.05016 1.7581.15048 2.5305.12038.752.32102 1.3922.60191 1.9207.28089.5284.66211.9451 1.14364 1.25.48153.2845 1.1035.4268 1.86592.4268.44142 0 .84272-.1016 1.20382-.3049.3612-.2236.6721-.5691.933-1.0366.2608-.4878.4514-1.1178.5718-1.8902.1404-.7927.2107-1.7581.2107-2.8963 0-.9349-.0602-1.7784-.1806-2.5304-.1003-.752-.2909-1.3923-.5718-1.9207-.2609-.5285-.622-.935-1.0835-1.2195-.4614-.3049-1.04329-.4573-1.74552-.4573-.52166 0-.97309.1118-1.3543.3353-.38121.2033-.70223.5488-.96306 1.0366-.26083.4675-.46147 1.0975-.60192 1.8902-.12038.7724-.18057 1.7276-.18057 2.8658zM28.1198 32.1452c.8226 0 1.555.0813 2.197.2439.6621.1423 1.1637.2845 1.5048.4268-.0602.6707-.1906 1.3618-.3913 2.0731-.2006.7114-.3812 1.3008-.5417 1.7683h-1.0232l-1.3242-2.8963c-.5217 0-.9631.061-1.3242.1829-.3411.1017-.622.3151-.8427.6403-.2007.3252-.3511.7926-.4515 1.4024-.1003.5894-.1504 1.3618-.1504 2.317v1.5244h3.1901v1.9207h-3.1901V53.151c1.0433.1219 2.0063.3658 2.8891.7316v1.1891h-9.2092v-1.1891c.622-.3658 1.2841-.6097 1.9863-.7316V41.7487h-2.2873v-1.189c.7023-.4472 1.4647-.7825 2.2873-1.0061v-1.0671c0-1.2601.1705-2.2967.5116-3.1097.3612-.8333.8427-1.4837 1.4446-1.9512.6019-.4877 1.3041-.8231 2.1067-1.006.8226-.183 1.6954-.2744 2.6183-.2744zm9.8895 8.4145c.7624-.4878 1.565-.8333 2.4076-1.0366v-2.4695c.1204-.1219.3211-.2337.602-.3353.3009-.122.6119-.2236.9329-.3049.3411-.1016.6722-.1931.9932-.2744.321-.0813.5818-.1423.7825-.1829h1.0232v3.8719h3.9726v1.9207h-3.9726v7.8962c0 1.2602.1505 2.1341.4514 2.6219.3211.4878.8427.7317 1.565.7317.3612 0 .7624-.0203 1.2038-.061.4615-.0609.8828-.1626 1.2641-.3048l.2106 1.006c-.1805.183-.4514.3761-.8126.5793-.341.2033-.7423.3963-1.2038.5793-.4414.1829-.9329.3353-1.4747.4573-.5216.1219-1.0734.1829-1.6552.1829-1.3042 0-2.2773-.3455-2.9193-1.0366-.642-.691-.9631-1.8089-.9631-3.3536v-9.2986h-2.4076v-1.189zm20.5076 2.7743c-.2408.122-.5217.3252-.8427.6098-.321.2845-.6119.752-.8728 1.4024v7.8048c.4013.0406.8026.1219 1.2038.2439.4013.1016.8026.2642 1.2039.4877v1.1891h-8.7278v-1.1891c.3612-.2032.7023-.3556 1.0233-.4573.321-.1016.642-.193.9631-.2743V41.9926l-1.9864-.2439v-1.189c.3211-.1423.7123-.2744 1.1738-.3964.4815-.1219.9731-.2235 1.4747-.3048.5016-.1016.9831-.183 1.4445-.2439.4816-.061.8829-.1118 1.2039-.1525h1.0232v4.0549h.1204c.1605-.4472.3912-.9147.6922-1.4025.321-.4878.6922-.9349 1.1135-1.3414.4214-.4065.8829-.7317 1.3844-.9756.5016-.2439 1.0233-.3557 1.565-.3354.2207.2846.4113.6911.5718 1.2195.1605.5082.291.996.3913 1.4634v1.189h-4.1231zm18.3783 7.317v1.1585c.0201.3252.0502.6707.0903 1.0366l2.0766.3049v1.067c-.2408.122-.5718.2439-.9932.3659-.4013.1219-.8326.2439-1.2941.3658-.4414.1016-.8828.1829-1.3242.2439-.4414.0813-.8326.1423-1.1737.1829h-1.0233c-.2006-.4674-.321-.9349-.3611-1.4024-.0402-.4675-.0702-1.0366-.0903-1.7073h-.1505c-.1003.4065-.2708.8029-.5116 1.189-.2408.3659-.5518.7012-.933 1.0061-.3611.2846-.7925.5183-1.2941.7012-.5016.1829-1.0634.2744-1.6853.2744-.6621 0-1.2741-.1016-1.8359-.3049-.5618-.2032-1.0533-.4878-1.4747-.8536-.4213-.3659-.7524-.8029-.9931-1.311-.2408-.5284-.3612-1.1178-.3612-1.7682 0-.9147.1706-1.6667.5117-2.2561.341-.5894.8727-1.0671 1.595-1.4329.7424-.3862 1.6854-.6707 2.829-.8536 1.1637-.183 2.5682-.3151 4.2134-.3964.1605-1.7479.0903-3.0284-.2107-3.8414-.3009-.813-.953-1.2195-1.9562-1.2195-.622 0-1.1938.1016-1.7154.3049l-1.4145 3.6585h-1.3242c-.1605-.2439-.3211-.5183-.4816-.8232-.1404-.3252-.2809-.6605-.4213-1.0061-.1204-.3658-.2307-.7317-.3311-1.0975-.0802-.3659-.1404-.7215-.1805-1.0671.7624-.5284 1.7455-.9451 2.9493-1.2499 1.2039-.3049 2.4779-.4574 3.8222-.4574 1.1436 0 2.0766.1322 2.7989.3964.7223.2439 1.2841.5894 1.6853 1.0365.4214.4269.7123.935.8728 1.5244.1605.5894.2408 1.2195.2408 1.8902 0 1.2195-.0301 2.3272-.0903 3.3231-.0401.9756-.0602 1.9817-.0602 3.0183zm-6.7715 2.3475c.4213 0 .7825-.0813 1.0834-.2439.301-.1626.5518-.3557.7524-.5792.2207-.2236.3812-.4675.4815-.7317.1204-.2643.2107-.498.2709-.7012v-3.0488c-.943.0203-1.7154.0813-2.3174.1829-.6019.1017-1.0734.2744-1.4145.5183-.341.2236-.5818.5183-.7222.8842-.1204.3455-.1806.7723-.1806 1.2804 0 .7724.1806 1.372.5417 1.7988.3611.4268.8627.6402 1.5048.6402zm16.6922 2.439l-6.0191-13.6888c-.5818-.2033-1.1135-.4472-1.5951-.7317v-1.189h7.9152v1.1585c-.2608.1423-.5317.2846-.8126.4268-.2608.122-.5618.2338-.9029.3354l2.7989 7.8047.5719 2.0427h.0601l.4816-2.0731 2.5581-7.7743c-.321-.0813-.622-.1829-.9029-.3049-.2608-.1219-.5116-.2642-.7524-.4268v-1.189h5.8085v1.189c-.2006.1423-.4514.2744-.7524.3963-.2809.122-.6019.2338-.9631.3354l-5.2667 13.323-2.2271.3658zm23.0961-2.9268c-.161.3455-.422.7012-.783 1.0671-.341.3455-.772.6605-1.294.9451-.501.2642-1.093.4776-1.775.6402-.663.1829-1.385.2744-2.167.2744-1.244 0-2.348-.1829-3.311-.5488-.963-.3861-1.7655-.9248-2.4075-1.6158-.6421-.7114-1.1337-1.5549-1.4747-2.5304-.3211-.9756-.4816-2.0732-.4816-3.2927 0-2.6016.6722-4.5832 2.0164-5.945 1.3443-1.3618 3.2104-2.0427 5.5974-2.0427 1.024 0 1.977.1423 2.86.4269.902.2845 1.645.752 2.227 1.4024.602.6504 1.013 1.504 1.234 2.5609.24 1.0569.23 2.3475-.031 3.8719h-9.239c.02 1.6057.421 2.8861 1.204 3.8414.802.9553 1.976 1.4329 3.521 1.4329.662 0 1.344-.1016 2.047-.3049.722-.2032 1.284-.4674 1.685-.7926l.572.6097zm-6.2-11.3108c-.401 0-.762.0712-1.083.2134-.301.1423-.572.4065-.813.7927-.221.3658-.401.874-.542 1.5244-.14.63-.24 1.4329-.301 2.4085h4.846c.14-1.5854.05-2.8049-.271-3.6585-.321-.8537-.933-1.2805-1.836-1.2805zm16.977 13.8718h-8.306v-1.1891c.662-.3252 1.324-.569 1.986-.7316V34.6756l-2.287-.2439v-1.189c.261-.1219.622-.2439 1.083-.3658.462-.122.953-.2236 1.475-.3049.542-.1016 1.073-.1829 1.595-.2439.542-.0813 1.023-.1423 1.445-.1829h1.023V53.151c.662.1626 1.324.4064 1.986.7316v1.1891z" fill="#FCF5ED"/></svg>