<svg width="105" height="39" fill="none" xmlns="http://www.w3.org/2000/svg"><path d="M104.147 3.17826c0 5.89349-28.0601 12.39864-30.1848 12.39864-1.1912 0-2.5428-.278-2.5428-1.39 0-.3715.4235-.9085 1.1667-1.5558l-1.9705-3.54315c-.2667-.47974-.0553-1.08752.4494-1.29215l.3385-.13722c.6136-.24872 1.304-.21164 1.8881.10137l3.5757 1.91674c1.3923-.83612 2.9716-1.71155 4.6362-2.57344l-6.9683-4.57747c-.5513-.36217-.5454-1.18126.011-1.535193l.5701-.362617c.9487-.6034889 2.102-.781735 3.1853-.492432L89.8939 3.23153C93.5084 1.77895 96.7762.787513 98.7105.787513c.5166 0 1.0339.013861 1.5335.049989L96.7429 2.43766l-.0838 1.19228 5.4039-2.51521c1.295.31279 2.084.89657 2.084 2.06353zM90.0442 13.3517l4.324 4.9735c.2635.3031.6927.3944 1.0542.2242l.5791-.2726c1.0561-.497 1.6781-1.6239 1.5428-2.795l-.5413-4.6864c-.0336-.2899-.3242-.4735-.5962-.3765l-6.1745 2.2023c-.3005.1073-.3987.4883-.1881.7305zM18.6679 4.88516c-.571-.08672-1.1705-.29629-1.7986-.62872v-.82383h5.3958v.82383c-.2427.15899-.4996.28907-.7708.39024-.2712.10118-.5353.18067-.7923.23848L16.9122 18.6085l-2.2269.2602-3.3188-10.49308L8.13332 18.6085l-2.24823.2602-4.1753-13.98354c-.29977-.05781-.57812-.1373-.835061-.23848-.256941-.11562-.499608-.2457-.728-.39024v-.82383H7.08415v.82383c-.24267.13008-.52102.25294-.83506.36856-.29977.10118-.61381.1879-.94212.26016l1.99129 7.65304.44965 2.8183h.04283l.74941-2.9267 2.84775-8.99719h1.2633l3.0405 8.88879.728 2.8183h.0428l.4925-2.8617 1.7129-7.39284zM21.2813 13.1886c0-.8817.1285-1.6694.3854-2.3632.2713-.7082.6495-1.30797 1.1349-1.79938.4996-.49141 1.0991-.8672 1.7986-1.12735.6994-.26016 1.4916-.39024 2.3767-.39024.9992 0 1.8557.14453 2.5694.4336.728.27461 1.3204.66484 1.7772 1.17071.471.49141.8136 1.09126 1.0277 1.79946.2141.6937.3212 1.4525.3212 2.2764 0 .8816-.1285 1.6765-.3854 2.3847-.257.6938-.6352 1.2864-1.1348 1.7778-.4854.4914-1.0849.8672-1.7986 1.1273-.6995.2602-1.4917.3903-2.3767.3903-.9707 0-1.8129-.1373-2.5266-.4119-.7138-.2891-1.3061-.6793-1.7772-1.1707-.4711-.5059-.8208-1.1057-1.0492-1.7995-.2284-.7082-.3426-1.4742-.3426-2.298zm3.3189 0c0 .6504.0356 1.2502.107 1.7994.0857.5348.2284.99.4283 1.3658.1998.3758.471.6721.8136.8889.3426.2023.7851.3035 1.3275.3035.3141 0 .5996-.0723.8565-.2168.2569-.159.4782-.4047.6638-.7371.1855-.3469.3211-.7949.4068-1.3442.0999-.5636.1499-1.2502.1499-2.0595 0-.6649-.0429-1.2647-.1285-1.7995-.0714-.5347-.207-.99-.4068-1.3658-.1856-.37579-.4425-.66486-.7708-.8672-.3284-.2168-.7423-.3252-1.2419-.3252-.3712 0-.6923.07949-.9636.23848-.2712.14453-.4996.39024-.6851.73711-.1856.33241-.3284.78051-.4283 1.34411-.0856.5493-.1284 1.2286-.1284 2.038zM39.5402 10.2618c-.1713.0867-.3711.2312-.5995.4336-.2284.2023-.4354.5347-.6209.9972v5.5501c.2854.0289.5709.0867.8564.1734.2855.0723.571.1879.8565.3469v.8455h-6.2094v-.8455c.2569-.1445.4996-.2529.728-.3252.2284-.0723.4568-.1373.6852-.1951V9.30786l-1.4132-.17344V8.2889c.2284-.10117.5067-.19512.835-.28184.3426-.08671.6924-.15898 1.0492-.21679.3569-.07227.6995-.13008 1.0278-.17344.3426-.04336.6281-.0795.8565-.1084h.728v2.88347h.0856c.1142-.318.2784-.65044.4925-.99732.2284-.34688.4924-.66485.7922-.95392.2998-.28906.6281-.52032.985-.69375.3568-.17344.728-.25294 1.1134-.23848.157.20234.2926.49141.4068.86719.1142.36133.207.70821.2783 1.04064v.84554h-2.9334zM49.1255 18.6085h-5.9096v-.8455c.471-.2312.9421-.4047 1.4131-.5203V4.10469l-1.6273-.17344v-.84552c.1856-.08672.4426-.17344.7709-.26016.3283-.08672.678-.15898 1.0491-.2168.3855-.07226.7637-.13007 1.1349-.17343.3854-.05782.728-.10118 1.0277-.13008h.728V17.2427c.4711.1156.9422.2891 1.4132.5203v.8455zM57.6267 16.4622c-.0714.318-.1999.6215-.3854.9106-.1856.289-.4069.5492-.6638.7804-.257.2168-.5496.3903-.8779.5204-.3283.13-.678.1951-1.0492.1951-1.4132 0-2.4909-.4481-3.2332-1.3442-.728-.9105-1.092-2.298-1.092-4.1625 0-.9539.1285-1.785.3855-2.4932.2569-.7227.6138-1.32969 1.0705-1.8211.4711-.49141 1.0349-.85997 1.6916-1.10567.6566-.24571 1.3846-.36856 2.184-.36856.2569 0 .471.00722.6423.02168.1856.01445.3498.03613.4925.06504.157.01445.2998.05058.4282.1084.1428.04336.2998.09394.4711.15176V4.10469l-1.6273-.17344v-.84552c.1998-.08672.4711-.16621.8136-.23848.3569-.07226.728-.1373 1.1135-.19512.3854-.07226.7636-.1373 1.1348-.19511.3711-.05782.678-.1084.9207-.15176h.728V17.0693l1.4132.1734v.7588c-.1999.1012-.4568.1951-.7709.2818-.314.0867-.6423.1662-.9849.2385s-.678.1301-1.0063.1734c-.3141.0579-.5782.1012-.7923.1301h-.728l-.1927-2.3631h-.0856zm-1.9485.6721c.4996 0 .9207-.159 1.2633-.477.3426-.3179.5924-.8599.7494-1.626V9.19946c-.1856-.11563-.4211-.20957-.7066-.28184-.2712-.07227-.6138-.1084-1.0278-.1084-.8279 0-1.4203.38301-1.7771 1.14903-.3569.75155-.5353 1.85005-.5353 3.29535 0 1.1707.157 2.1102.471 2.8184.3141.7082.8351 1.0623 1.5631 1.0623zM.810494 33.3199c0-.8817.128471-1.6694.385416-2.3631.27121-.7082.64949-1.3081 1.13482-1.7995.49961-.4914 1.09914-.8672 1.79859-1.1273.69945-.2602 1.49169-.3903 2.37671-.3903.99922 0 1.85569.1446 2.56941.4336.728.2747 1.32036.6649 1.77716 1.1708.4711.4914.8137 1.0912 1.0278 1.7994.2141.6937.3212 1.4525.3212 2.2764 0 .8816-.1285 1.6765-.3854 2.3848-.257.6937-.6353 1.2863-1.1349 1.7777-.4853.4914-1.08484.8672-1.79856 1.1274-.69946.2601-1.49169.3902-2.37671.3902-.97067 0-1.81287-.1373-2.52659-.4119-.71373-.2891-1.30612-.6793-1.77718-1.1707-.47106-.5059-.82079-1.1057-1.04918-1.7995-.22839-.7082-.342586-1.4742-.342586-2.298zm3.318826 0c0 .6504.03569 1.2502.10706 1.7994.08565.5348.22839.99.42824 1.3658.19984.3758.47105.6721.81364.8889.34259.2024.7851.3035 1.32753.3035.31404 0 .59953-.0722.85647-.2168.25695-.159.4782-.4047.66377-.7371.18557-.3469.32118-.7949.40682-1.3441.09993-.5637.14989-1.2502.14989-2.0596 0-.6649-.04283-1.2647-.12847-1.7995-.07138-.5347-.20698-.99-.40683-1.3658-.18557-.3758-.44251-.6648-.77082-.8672-.32832-.2168-.74228-.3252-1.24189-.3252-.37113 0-.69231.0795-.96353.2385-.27121.1445-.4996.3902-.68517.7371-.18557.3324-.32832.7805-.42824 1.3442-.08565.5492-.12847 1.2285-.12847 2.0379zM19.7332 22.4366c.5852 0 1.1062.0578 1.563.1734.4711.1012.8279.2024 1.0706.3035-.0428.477-.1356.9684-.2783 1.4743-.1428.5058-.2713.925-.3855 1.2574h-.728l-.9421-2.0596c-.3711 0-.6852.0434-.9421.1301-.2427.0723-.4425.224-.5995.4553-.1428.2312-.2498.5636-.3212.9972-.0714.4192-.1071.9684-.1071 1.6477v1.084h2.2697v1.3658H18.063v8.1083c.7423.0867 1.4275.2602 2.0556.5203v.8455h-6.552v-.8455c.4425-.2601.9135-.4336 1.4131-.5203v-8.1083h-1.6273v-.8455c.4997-.318 1.0421-.5564 1.6273-.7154v-.7588c0-.8961.1214-1.6332.364-2.2114.257-.5925.5996-1.055 1.0278-1.3875.4282-.3469.9279-.5853 1.4988-.7154.5853-.1301 1.2062-.1951 1.8629-.1951zM26.7691 28.4202c.5424-.3469 1.1134-.5926 1.7129-.7371V25.927c.0857-.0867.2284-.1662.4283-.2384.2141-.0868.4354-.159.6637-.2168.2427-.0723.4782-.1374.7066-.1952.2284-.0578.414-.1011.5567-.13h.728v2.7533h2.8264v1.3658h-2.8264v5.6151c0 .8961.1071 1.5176.3212 1.8645.2284.3469.5995.5203 1.1134.5203.257 0 .5425-.0144.8565-.0433.3283-.0434.6281-.1157.8993-.2168l.1499.7154c-.1285.1301-.3212.2674-.5781.4119-.2427.1445-.5282.2818-.8565.4119-.314.1301-.6638.2385-1.0492.3252-.3711.0867-.7637.1301-1.1776.1301-.9279 0-1.6202-.2457-2.077-.7371-.4568-.4914-.6852-1.2864-.6852-2.3848v-6.6124h-1.7129v-.8455zM41.3594 30.3931c-.1713.0867-.3711.2312-.5995.4336-.2284.2023-.4354.5348-.621.9973v5.55c.2855.0289.571.0867.8565.1734.2855.0723.571.1879.8565.3469v.8455h-6.2095v-.8455c.257-.1445.4997-.2529.728-.3252.2284-.0722.4568-.1373.6852-.1951v-7.9348l-1.4132-.1735v-.8455c.2284-.1012.5068-.1951.8351-.2818.3426-.0867.6923-.159 1.0492-.2168.3568-.0723.6994-.1301 1.0278-.1735.3425-.0433.628-.0795.8564-.1084h.728v2.8835h.0857c.1142-.318.2783-.6504.4924-.9973.2284-.3469.4925-.6649.7923-.9539.2997-.2891.6281-.5203.9849-.6938.3569-.1734.728-.2529 1.1134-.2385.1571.2024.2927.4915.4069.8672.1142.3614.2069.7082.2783 1.0407v.8455h-2.9334zM54.4348 35.5963v.8238c.0143.2312.0357.477.0642.7371l1.4775.2168v.7588c-.1713.0867-.4069.1734-.7066.2602-.2855.0867-.5924.1734-.9207.2601-.3141.0723-.6281.1301-.9422.1735-.314.0578-.5924.1011-.835.13h-.728c-.1428-.3324-.2284-.6648-.257-.9972-.0285-.3325-.0499-.7371-.0642-1.2141h-.1071c-.0713.2891-.1927.5709-.364.8455-.1713.2602-.3925.4986-.6637.7154-.257.2024-.5639.3686-.9207.4987-.3569.1301-.7566.1951-1.1991.1951-.4711 0-.9064-.0723-1.3061-.2168-.3997-.1445-.7494-.3469-1.0492-.607-.2998-.2602-.5353-.5709-.7066-.9323-.1713-.3758-.2569-.7949-.2569-1.2574 0-.6504.1213-1.1852.364-1.6043.2426-.4192.6209-.7588 1.1348-1.019.5282-.2746 1.1991-.4769 2.0127-.607.8279-.1301 1.8271-.224 2.9977-.2818.1142-1.243.0642-2.1536-.1499-2.7317-.2141-.5781-.6781-.8672-1.3918-.8672-.4425 0-.8493.0723-1.2205.2168l-1.0063 2.6016h-.9421c-.1142-.1735-.2284-.3686-.3426-.5854-.0999-.2312-.1999-.4697-.2998-.7154-.0856-.2602-.1641-.5203-.2355-.7805-.0571-.2601-.0999-.5131-.1285-.7588.5424-.3758 1.2419-.6721 2.0984-.8889.8564-.2168 1.7629-.3252 2.7193-.3252.8136 0 1.4774.094 1.9913.2819.5138.1734.9135.4191 1.199.7371.2998.3035.5068.6648.621 1.084.1142.4191.1713.8672.1713 1.3441 0 .8672-.0214 1.6549-.0643 2.3632-.0285.6937-.0428 1.4091-.0428 2.1463zm-4.8177 1.6693c.2998 0 .5568-.0578.7709-.1734.2141-.1157.3925-.253.5353-.4119.157-.159.2712-.3325.3426-.5204.0856-.1879.1498-.3541.1927-.4986v-2.168c-.6709.0145-1.2205.0578-1.6487.1301-.4283.0723-.7637.1951-1.0064.3686-.2427.1589-.414.3685-.5139.6287-.0856.2457-.1285.5492-.1285.9105 0 .5492.1285.9756.3855 1.2791.2569.3035.6138.4553 1.0705.4553zM61.493 39l-4.2824-9.7343c-.4139-.1445-.7922-.3179-1.1348-.5203v-.8455h5.6313v.8238c-.1856.1012-.3783.2024-.5781.3036-.1856.0867-.3997.1662-.6424.2384l1.9913 5.5501.4069 1.4525h.0428l.3426-1.4742 1.82-5.5284c-.2284-.0578-.4425-.13-.6424-.2168-.1855-.0867-.364-.1879-.5353-.3035v-.8455h4.1325v.8455c-.1427.1012-.3212.1951-.5353.2819-.1998.0867-.4282.1662-.6852.2384l-3.747 9.4741L61.493 39zM77.9247 36.9187c-.1142.2457-.2998.4987-.5567.7588-.2427.2457-.5496.4698-.9207.6721-.3569.1879-.778.3397-1.2633.4553-.4711.1301-.9849.1951-1.5417.1951-.885 0-1.6701-.1301-2.3553-.3902-.6851-.2746-1.2561-.6577-1.7129-1.1491-.4568-.5058-.8065-1.1056-1.0492-1.7994-.2284-.6938-.3426-1.4742-.3426-2.3414 0-1.85.4782-3.2592 1.4346-4.2276.9564-.9684 2.2839-1.4526 3.9826-1.4526.728 0 1.4061.1012 2.0341.3036.6424.2023 1.1705.5347 1.5845.9972.4282.4625.7209 1.0696.8779 1.8211.1713.7516.1641 1.6694-.0214 2.7534h-6.5734c.0142 1.1418.2997 2.0524.8564 2.7317.571.6793 1.4061 1.0189 2.5052 1.0189.4711 0 .9564-.0723 1.456-.2168.5139-.1445.9136-.3324 1.1991-.5637l.4068.4336zm-4.4108-8.0432c-.2855 0-.5425.0506-.7709.1518-.2141.1011-.4068.289-.5781.5636-.157.2602-.2855.6215-.3854 1.084-.0999.4481-.1713 1.019-.2141 1.7127h3.4473c.0999-1.1273.0357-1.9945-.1927-2.6015-.2284-.6071-.6638-.9106-1.3061-.9106zM85.5925 38.7398h-5.9097v-.8455c.4711-.2312.9421-.4047 1.4132-.5203V24.236l-1.6273-.1734v-.8456c.1856-.0867.4425-.1734.7708-.2601.3283-.0867.6781-.159 1.0492-.2168.3854-.0723.7637-.1301 1.1348-.1734.3854-.0579.728-.1012 1.0278-.1301h.728V37.374c.471.1156.9421.2891 1.4132.5203v.8455z" fill="#FCF5ED"/></svg>